<?xml version="1.0" encoding="utf-8"?>
<svg version="1.1" id="Ebene_1" xmlns="http://www.w3.org/2000/svg" xmlns:xlink="http://www.w3.org/1999/xlink" x="0px" y="0px"
	 viewBox="0 0 500 500" style="enable-background:new 0 0 500 500;" xml:space="preserve">
<style type="text/css">
	.st0{fill:#C1272D;}
	.st1{fill:none;stroke:#000000;stroke-width:12;stroke-linecap:round;stroke-miterlimit:10;}
	.st2{fill:#FFFFFF;stroke:#000000;stroke-width:3;stroke-linecap:round;stroke-miterlimit:10;}
	.st3{fill:#A00404;}
	.st4{stroke:#000000;stroke-width:3;stroke-linecap:round;stroke-miterlimit:10;}
</style>
<g id="TV">
	<path d="M12.1,153.9l18.7,292.3c1.3,19.9,19,35.4,40.4,35.4l346.9,0c16.4,0,30.1-11.3,32.1-26.4l40.5-314
		c3-22.9-16.8-42.9-41.6-42.2l-394,11.3C30,110.9,10.6,130.7,12.1,153.9z"/>
	<path class="st0" d="M458.1,166.3l-37,264.7c-1.1,17-3.7,34.6-33.6,30.3L88,457.4c-12.5-0.2-22.9-9.4-24-21.4L39.2,169.2
		c-2.5-19.7,13.9-36.8,34.5-36.2l328.1,2.7C422.7,136.3,460.3,130.4,458.1,166.3z"/>
	<line class="st1" x1="218.4" y1="111.5" x2="159" y2="40"/>
	<line class="st1" x1="255.2" y1="117.5" x2="291.8" y2="8.5"/>
</g>
<g id="eyes">
	<g id="eye_x5F_l">
		<path class="st2" d="M262.7,275.1c12.5,80.7-22.5,152.2-78.3,159.8S73.2,383.1,60.7,302.5S83.2,150.2,139,142.7
			S250.2,194.4,262.7,275.1z"/>
		<g>
			<g>
				<path class="st3" d="M115,198c6.5,5.5,13,11.3,16.8,19.1c2.9,6.1-1.6,10.2-2.2,16c-0.3,2.9,0.2,5.9,1.7,8.5
					c1.4,2.4,3.6,4.3,6,5.7c3.1,1.7,7.5,1.9,10,4.4c3.1,3.1,5,8.3,7.5,11.9c2.3,3.4,4.8,6.6,7.4,9.7c2.8,3.3,5.9,6.5,9.1,9.4
					c3.1,2.8,7.8,5.3,9.9,8.9c3.6,6,4.4,13.6,10.2,18.2c5.9,4.8,12.1,1.4,18.6,0.1c5.4-1.2,9.2,1.1,14.1,3.1c4,1.6,8.1,2.5,12.3,3.1
					c1.9,0.3,1.9-2.8,0-3c-5.7-0.7-10.6-2.6-15.8-4.9c-2.9-1.2-5.4-1.9-8.6-1.7c-3.4,0.3-6.6,1.8-9.9,2.5c-6,1.3-9.9-1.5-12.8-6.5
					c-3.5-6.1-4.4-12.6-10.1-17.1c-7.1-5.6-13.5-11.9-18.9-19.2c-2.8-3.7-5.3-7.5-7.6-11.5c-1.4-2.3-2.5-4.8-4.7-6.4
					c-2.7-1.9-6.3-2-9.2-3.7c-4.6-2.6-7-7.1-6.1-12.4c0.7-3.9,4.2-7.1,3.6-11.2c-0.4-2.8-2.1-5.8-3.5-8.2
					c-3.9-6.7-9.8-11.9-15.7-16.9C115.6,194.7,113.5,196.8,115,198L115,198z"/>
			</g>
		</g>
		<g>
			<g>
				<path class="st3" d="M167.2,181.4c0.4-5.1-9.1-1.8-11.2-0.9c-6.2,2.5-11.3,7.4-15.2,12.7c-10.1,14-5.3,30.2,2.4,44
					c4.3,7.8,9.6,14.7,14.9,21.7c1.8,2.4,3.6,5.2,2.8,8.3c-0.6,2.5-3,4.9-4.7,6.7c-3.1,3.2-6.6,5.9-10.5,8.1
					c-6.5,3.6-14.6,4.6-20.5,9.2c-5.9,4.5-8.5,11.9-10.7,18.8c-2.8,8.9-5.2,17.7-2.7,26.9c2.4,9.1,8.3,16.4,14.3,23.5
					c1.3,1.5,3.4-0.7,2.1-2.1c-5.3-6.2-10.5-12.7-13.1-20.6c-2.7-8.4-0.9-16.3,1.5-24.5c2.2-7.3,4.6-16.2,11.6-20.4
					c5.4-3.3,12-4.4,17.7-7.4c7.8-4.1,22-13.9,17.2-24.3c-1.3-2.7-3.4-4.9-5.3-7.2c-2.8-3.6-5.5-7.3-7.9-11.1
					c-4.3-6.7-8.3-13.9-10.5-21.6c-2.6-9.1-1.9-18,3.5-25.8c2.4-3.5,5.5-6.8,9-9.2c1.9-1.3,3.9-2.5,6.1-3.2c0.8-0.3,6-1.2,6.1-1.5
					C164,183.3,167,183.3,167.2,181.4L167.2,181.4z"/>
			</g>
		</g>
		<g>
			<g>
				<path class="st3" d="M113.4,253c15,10.5,31,20.7,47.8,27.9c6.6,2.8,14.3,4.9,21.1,1.6c5.6-2.8,9-8.5,12.1-13.7
					c1.5-2.5,4.2-8.7,7-9.9c0.8-1.4,1.7-1.3,2.7,0.4c0.7,0.6,1.3,1.3,2,1.9c1.6,1.5,3.2,2.9,4.8,4.3c6,5.3,13,12.1,20.7,14.8
					c16,5.5,20.9-16.3,23-27.3c0.4-1.9-2.5-2.7-2.9-0.8c-1.5,7.8-2.8,17.5-9,23.2c-8,7.2-17.9-2.2-24.1-7.3c-3.1-2.5-6.1-5.1-9-7.8
					c-1.7-1.5-4.1-5.1-6.5-5.6c-3.6-0.7-7.2,6-8.7,8.3c-3.6,5.5-6.5,12.5-12.3,16.1c-7.7,4.8-17.2,0.5-24.4-3.1
					c-14.9-7.4-29.2-16.1-42.9-25.6C113.4,249.3,111.9,251.9,113.4,253L113.4,253z"/>
			</g>
		</g>
		<g>
			<g>
				<path class="st3" d="M200.2,207.4c-13.2-2.3-22.5,13-27.3,23.1c-6.5,13.8-9.7,29.3-10.7,44.5c-0.6,8.9,0.3,17.4,2.1,26.1
					c1.9,9.9,1.7,19.2-1,28.9c-2.3,8.1-5.8,15.7-8.8,23.5c-3.1,8.1-5.3,16.4-6.6,25.1c-0.3,1.9-0.5,3.8-0.8,5.8
					c-0.3,2.7-0.6,7.5-4.1,4.7c-1.4-1.2-2.2-3.7-3.3-5.2c-1-1.3-2-2.5-3.2-3.5c-4.7-4.1-10.8-5.8-16.7-3.8c-1.8,0.6-1,3.5,0.8,2.9
					c8.4-2.8,14.8,2.8,18.9,9.6c1.8,2.9,5.4,6.9,8.7,3.4c1.3-1.4,1.4-3.6,1.7-5.5c0.6-4.6,1.1-9.2,2-13.8c1.6-8,4.2-15.6,7.2-23.1
					c5.9-14.6,11.5-29.1,9-45.1c-1.4-9.1-3.4-17.8-3-27.1c0.4-8.5,1.6-17,3.5-25.2c1.9-8.4,4.6-16.6,8.7-24.2
					c4.1-7.7,11.9-20,22.1-18.2C201.3,210.6,202.1,207.7,200.2,207.4L200.2,207.4z"/>
			</g>
		</g>
		<g>
			<g>
				<path class="st3" d="M127.1,257.5c-2.6-7.9-5.2-15.8-7.8-23.7c-2.1-6.5-4-13.5-8.1-19.2c-3.7-5.2-9.6-8.5-15-11.6
					c-5-3-10.4-6.1-16.1-3.1c-1.7,0.9-0.2,3.5,1.5,2.6c6.2-3.2,15.2,4.2,20.1,7.5c5.2,3.5,8.4,7.7,10.8,13.5
					c4.6,11.3,7.9,23.2,11.7,34.8C124.8,260.1,127.7,259.4,127.1,257.5L127.1,257.5z"/>
			</g>
		</g>
		<g>
			<g>
				<path class="st3" d="M112.1,261.5c-9.9,4.9-17.4,13.6-22.1,23.5c-2.7,5.8-3.7,12-6.1,17.9c-2.3,5.8-7.3,4.7-11.8,2.1
					c-4-2.4-6.5-5.9-7.8-10.3c-0.6-1.8-3.5-1.1-2.9,0.8c1.9,6.1,5.9,10.9,11.8,13.4c6.5,2.7,10.4,2.3,13.2-4.4
					c3.4-8.1,4.7-16.5,9.5-24.1c4.4-6.9,10.3-12.7,17.6-16.3C115.3,263.3,113.8,260.7,112.1,261.5L112.1,261.5z"/>
			</g>
		</g>
		<g>
			<g>
				<path class="st3" d="M167,280c1.1,10.7,2.2,21.6,5.6,31.8c3.3,10.2,9.1,18.2,17,25.5c8.7,8.1,16.9,16.6,25.2,25.1
					c4.1,4.1,8.4,8,12.7,11.7c5.9,5.1,6.6,10.9,5.7,18.3c-0.1,0.6,0.5,1.3,1.1,1.4c5.9,1.2,10.6-1.9,13.3-7c0.9-1.7-1.7-3.2-2.6-1.5
					c-2,3.8-5.4,6.6-9.9,5.7c0.4,0.5,0.7,1,1.1,1.4c0.6-4.8,1.1-9.8-1.2-14.2c-2.1-4.2-6.2-6.8-9.6-9.9
					c-9.3-8.2-17.3-17.7-26.3-26.3c-8.5-8.2-17.4-15.3-22-26.6c-4.6-11.2-5.8-23.5-7.1-35.4C169.8,278.1,166.8,278.1,167,280
					L167,280z"/>
			</g>
		</g>
		<g>
			<g>
				<path class="st3" d="M212.2,301.8c14.7-10.4,19.1-26.1,17.3-43.5c-1.1-10.3-4.2-20.2-5.5-30.4c-1.2-9.2-1.1-22.2,7.2-28.4
					c1.5-1.1,0-3.7-1.5-2.6c-13.7,10.2-9,31.6-6,45.6c4.4,20.6,6.2,43-13.1,56.6C209.1,300.3,210.6,302.9,212.2,301.8L212.2,301.8z"
					/>
			</g>
		</g>
		<g>
			<g>
				<path class="st3" d="M170.8,160.6c5.7-0.6,14.9-1.8,19.7,1.9c4.7,3.6,6.1,12.4,6.7,17.9c1.3,12.6-3.3,22.4-11,32
					c-5.5,6.9-11,13.7-9.9,23.1c1.2,9.5,6.5,18.9,12.3,26.2c1.2,1.5,3.3-0.6,2.1-2.1c-8-10.1-16-25.3-8.2-37.5
					c5.5-8.6,13.3-15.3,16.3-25.5c2.8-9.5,1.8-20.8-2.1-29.9c-1.5-3.5-3.7-7-7.5-8.3c-5.6-1.9-12.7-1.3-18.5-0.7
					C168.9,157.8,168.9,160.8,170.8,160.6L170.8,160.6z"/>
			</g>
		</g>
		<g>
			<g>
				<path class="st3" d="M129.1,163.3c-1.7-0.1-2.6,0.4-3.7,1.7c-0.5,0.6-0.6,1.5,0,2.1c6.7,7,12.9,13.1,17.2,22
					c4.2,8.6,7,17.9,9.8,27.1c4.7,15.4,9.7,33,22.1,44.3c2.1,1.9,3.6,3.6,4.3,6.5c0.6,2.3,0.9,4.7,1.4,7c1.3,5.2,2.9,10.3,4.5,15.3
					c3.1,9.6,5.7,19,7,29c2,16.1,2.1,34.5,14.7,46.5c3.3,3.2,7.2,5.7,11.1,8.1c3.5,2.1,5,4.4,5,8.7c0,3.5-1.2,7.1-2.7,10.2
					c-4.3,8.6-11.5,15-13.8,24.7c-0.4,1.9,2.5,2.7,2.9,0.8c2.3-9.9,10.1-16.4,14.1-25.4c2.6-5.8,4.5-14.7-0.9-19.5
					c-3-2.6-6.9-4.3-10.1-6.7c-4.6-3.5-8.3-7.8-10.7-13c-4.2-8.9-5-19-6-28.6c-1.1-9.8-2.7-19.3-5.6-28.8c-3-9.7-6-19.2-8.1-29.1
					c-0.9-4.4-3-5.8-6.1-8.8c-3.4-3.4-6.2-7.4-8.5-11.5c-4.7-8.3-7.7-17.4-10.5-26.5c-3.2-10.2-6.1-20.5-10.6-30.3
					c-4.5-9.8-11-16.4-18.3-24.1c0,0.7,0,1.4,0,2.1c0.5-0.3,1.1-0.6,1.6-0.8C131,166.5,131,163.5,129.1,163.3L129.1,163.3z"/>
			</g>
		</g>
		<g>
			<g>
				<path class="st3" d="M78.9,251c12.3,10.3,25.8,19.2,40.4,25.9c6.8,3.1,13.7,5.4,20.8,7.8c8.4,2.9,12.9,12,17.6,19.1
					c9.6,14.3,18.2,29.3,23.8,45.6c2.9,8.5,5.1,17.3,6.1,26.2c1,8.4,0.5,16.7,0.1,25.1c-0.4,7,0.2,14.5,5,20.1
					c3.6,4.2,8.9,6.5,14.3,4.8c1.8-0.6,1.1-3.5-0.8-2.9c-8.2,2.6-14-5.8-15.2-12.8c-1.4-8.2,0.6-16.9,0.3-25.2
					c-0.5-15.3-4.3-30.4-10.1-44.4c-5.9-14.2-13.8-27.4-22.4-40.1c-3.4-5.1-6.8-11.7-11.9-15.4c-5.2-3.9-12.7-4.8-18.7-7.2
					c-17.2-6.8-33.1-16.7-47.3-28.6C79.5,247.7,77.4,249.8,78.9,251L78.9,251z"/>
			</g>
		</g>
		<g>
			<g>
				<path class="st3" d="M108.2,263c9.7,4.2,21.7-1.6,30.4,4.7c3.4,2.5,5.9,5.4,10.5,5.3c4.4-0.1,8.2-2.7,11.4-5.6
					c1.4-1.3-0.7-3.4-2.1-2.1c-2.2,1.9-4.6,3.8-7.5,4.5c-3.9,0.9-6.3-1.2-9.1-3.4c-2.5-1.9-4.9-3.4-8-4.1c-8-1.8-16.3,1.5-24.1-1.9
					C108,259.6,106.5,262.2,108.2,263L108.2,263z"/>
			</g>
		</g>
		<path class="st4" d="M193.2,283.7c3.5,27.4-9.1,51.2-28.2,53.4s-37.3-18.3-40.8-45.7c-3.5-27.4,9.1-51.2,28.2-53.4
			S189.7,256.4,193.2,283.7z"/>
	</g>
	<g id="eye_x5F_r">
		<path class="st2" d="M227.9,286.9c-12.2,80.7,21.9,152.2,76.2,159.8c54.3,7.6,108.1-51.7,120.3-132.4s-21.9-152.2-76.2-159.8
			S240.1,206.2,227.9,286.9z"/>
		<g>
			<g>
				<path class="st3" d="M369.5,207.8c-5.8,5-11.5,10.2-15.3,16.9c-1.4,2.4-3,5.4-3.4,8.2c-0.6,4.1,2.8,7.3,3.5,11.2
					c1,5.7-1.9,10.6-7,13c-2.6,1.2-5.6,1.4-7.9,3.1c-2.6,1.9-3.9,5.2-5.5,7.9c-2.2,3.7-4.5,7.2-7,10.6c-5.3,7.1-11.4,13.1-18.2,18.7
					c-5.8,4.7-6.3,12-10.2,18.1c-3.2,5.1-7.3,6.5-13,4.9c-2.9-0.8-5.7-2-8.7-2.2c-3.5-0.2-6.3,1-9.4,2.4c-4.7,2.1-9.2,3.6-14.3,4.3
					c-1.9,0.3-1.1,3.1,0.8,2.9c4.1-0.6,8.1-1.6,11.9-3.2c5.2-2.2,9-4.1,14.7-2.5c5.9,1.6,11.8,3.9,17-0.7c2.5-2.2,4.2-5.2,5.5-8.2
					c1.8-3.8,2.7-8.8,5.6-11.9c2.7-2.9,6.4-5.2,9.3-7.9c2.9-2.8,5.7-5.8,8.3-8.9c2.4-2.9,4.6-5.9,6.7-9.1c2.4-3.7,4.3-8.8,7.3-11.9
					c2.4-2.5,6.7-2.6,9.7-4.4c2.4-1.4,4.5-3.3,5.8-5.7c1.5-2.6,2-5.5,1.7-8.5c-0.6-5.8-4.9-10-2.1-16c3.6-7.8,9.9-13.6,16.3-19.1
					C373.1,208.6,370.9,206.5,369.5,207.8L369.5,207.8z"/>
			</g>
		</g>
		<g>
			<g>
				<path class="st3" d="M323.8,193.3c0-0.2,9,2.9,9.9,3.5c3.5,2.1,6.5,5.1,9,8.3c5.7,7.2,7.7,15.6,5.9,24.6
					c-2.9,14.8-12.5,27.6-21.4,39.3c-2.9,3.8-4.7,8-2.6,12.7c2.4,5.3,7.7,9.8,12.4,13c5.1,3.5,10.7,5.4,16.4,7.6
					c8.6,3.3,12.2,9.7,14.9,18.1c2.8,8.6,5.7,17.8,3.6,26.9c-2.1,8.9-7.6,16.1-13.3,23c-1.2,1.5,0.9,3.6,2.1,2.1
					c10.4-12.6,17.7-25.5,13.6-42.2c-1.9-7.5-3.9-16-8.4-22.4c-4.2-5.9-10.4-7.7-16.8-10.2c-7.9-3.1-18.3-8.9-21.7-17.2
					c-2.2-5.4,2.3-9.5,5.3-13.4c2.8-3.7,5.4-7.6,7.9-11.5c7.6-12.6,15.7-28.8,9.6-43.6c-3.2-7.7-9.5-14.9-16.9-18.7
					c-2.2-1.1-12.9-5.4-12.5,0.2C320.9,195.2,323.9,195.2,323.8,193.3L323.8,193.3z"/>
			</g>
		</g>
		<g>
			<g>
				<path class="st3" d="M371.6,262.3c-13.3,9.5-27.1,18.2-41.7,25.6c-7.7,3.9-17.8,8.4-25.4,1.8c-4.9-4.2-7.5-10.7-11-16
					c-1.6-2.4-4.4-7.8-7.9-7.1c-2.2,0.4-5.2,4.7-6.8,6.1c-2.8,2.7-5.8,5.2-8.8,7.7c-6.2,5.1-15.6,14-23.2,6.2
					c-5.7-5.8-6.9-15.1-8.3-22.7c-0.3-1.9-3.2-1.1-2.9,0.8c2,10.7,6.5,32.7,22.4,27.3c7.1-2.4,13.4-8.7,18.8-13.6
					c1.8-1.6,3.6-3.2,5.3-4.9c0.6-0.6,3.5-3.9,4.3-3.9c2.1,0,5.9,7.9,7,9.6c3,5.1,6,10.9,11.2,14.1c6.2,3.9,13.6,2.6,20,0
					c17.2-6.8,33.5-18,48.4-28.7C374.6,263.7,373.1,261.1,371.6,262.3L371.6,262.3z"/>
			</g>
		</g>
		<g>
			<g>
				<path class="st3" d="M289.4,222.1c8.9-1.6,15.6,8.2,19.6,14.8c4,6.8,6.8,14.2,8.9,21.8c4.6,16.7,6.4,34.4,3.2,51.5
					c-1.5,7.9-2.4,15.3-1.3,23.3c1.1,7.8,3.7,15.2,6.5,22.5c2.9,7.6,6,15.1,8,23c0.9,3.7,1.6,7.5,2.2,11.3c0.6,3.7,0.3,8.1,1.5,11.7
					c1.5,4.6,5.7,4.4,8.4,0.9c2.6-3.3,3.9-7.1,7.6-9.7c3.6-2.6,7.8-3.4,12.1-1.9c1.8,0.6,2.6-2.3,0.8-2.9
					c-5.2-1.8-10.6-0.6-14.9,2.6c-1.9,1.5-3.6,3.3-5,5.3c-0.9,1.3-1.6,3.5-2.8,4.6c-3.6,3.1-3.6-2.3-3.9-4.7
					c-0.9-8.1-2.3-16.1-4.7-23.9c-2.5-8.1-6.1-15.8-8.8-23.8c-2.9-8.5-5-17.5-4.4-26.6c0.6-9.3,3.5-18.1,3.5-27.4
					c0.1-15.9-2.8-32.7-8.6-47.4c-4.4-11-13.9-30.5-28.6-27.9C286.7,219.6,287.5,222.5,289.4,222.1L289.4,222.1z"/>
			</g>
		</g>
		<g>
			<g>
				<path class="st3" d="M362.6,270.2c3.7-11.4,6.8-23.1,11.1-34.2c2.3-6,5.4-10.3,10.7-14c4.7-3.3,13.5-10.7,19.5-7.5
					c1.7,0.9,3.2-1.7,1.5-2.6c-5.3-2.8-10.2-0.2-15,2.6c-5.5,3.2-11.6,6.8-15.4,12.1c-3.8,5.4-5.6,12-7.6,18.2
					c-2.6,8.2-5.3,16.4-7.9,24.6C359.1,271.2,362,272,362.6,270.2L362.6,270.2z"/>
			</g>
		</g>
		<g>
			<g>
				<path class="st3" d="M373.9,275c7,3.6,12.5,9.1,16.7,15.7c4.9,7.8,6.2,16.4,9.6,24.8c2.5,6.2,5.9,7.2,12.1,4.7
					c6.2-2.5,10.4-7.3,12.3-13.7c0.6-1.9-2.3-2.6-2.9-0.8c-1.2,4-3.3,7.5-6.9,9.8c-4.4,3-9.8,4.5-12.1-1.6
					c-2.3-5.9-3.3-12.1-5.9-17.9c-4.5-9.9-11.7-18.5-21.5-23.5C373.7,271.5,372.2,274.1,373.9,275L373.9,275z"/>
			</g>
		</g>
		<g>
			<g>
				<path class="st3" d="M320.1,291.9c-1.2,11.5-2.3,23.2-6.3,34.1c-4.4,11.9-13.2,19.3-21.9,27.9c-8.5,8.4-16.1,17.6-24.9,25.7
					c-3.3,3.1-7.4,5.8-9.6,9.8c-2.6,4.6-2.1,9.8-1.6,14.9c0.4-0.5,0.7-1,1.1-1.4c-4.5,0.9-7.7-1.9-9.6-5.7c-0.9-1.7-3.5-0.2-2.6,1.5
					c2.6,5.1,7.2,8.2,13,7c0.6-0.1,1.2-0.8,1.1-1.4c-0.8-7-0.5-12.9,5-17.9c4.2-3.8,8.4-7.5,12.3-11.5c8.4-8.6,16.4-17.4,25.1-25.7
					c7.5-7.1,13.1-14.9,16.3-24.7c3.4-10.5,4.6-21.7,5.7-32.6C323.3,290,320.3,290,320.1,291.9L320.1,291.9z"/>
			</g>
		</g>
		<g>
			<g>
				<path class="st3" d="M278.5,311.1c-19.6-14.2-16.7-37.5-12.3-58.5c2.8-13.5,6.7-33.9-6.2-43.7c-1.5-1.2-3,1.4-1.5,2.6
					c7.4,5.7,8,17.2,7.2,25.7c-1,10.7-4.2,21-5.5,31.7c-2,17.6,1.9,34,16.7,44.9C278.5,314.8,280,312.2,278.5,311.1L278.5,311.1z"/>
			</g>
		</g>
		<g>
			<g>
				<path class="st3" d="M317.3,169.5c-5.5-0.6-11.8-1-17.3,0.5c-4.2,1.2-6.5,4.6-8.1,8.5c-3.8,9.1-4.7,20.4-2,29.9
					c2.9,10.1,10.5,16.9,15.9,25.5c7.6,12.1-0.2,27.4-8,37.5c-1.2,1.5,0.9,3.6,2.1,2.1c5.7-7.4,10.7-16.6,12-26
					c1.3-9.4-4.1-16.3-9.6-23.3c-7.3-9.4-11.8-18.9-10.7-31.1c0.5-5.7,1.7-13.6,5.7-18c4.1-4.6,14.4-3.2,20-2.6
					C319.2,172.7,319.2,169.7,317.3,169.5L317.3,169.5z"/>
			</g>
		</g>
		<g>
			<g>
				<path class="st3" d="M357.8,178.2c0.5,0.3,1,0.6,1.5,0.8c0-0.7,0-1.4,0-2.1c-6.6,7-12.6,13.1-16.8,21.9
					c-4,8.3-6.8,17.2-9.4,26.1c-2.8,9.5-5.6,19-9.7,28c-1.8,3.9-3.9,7.7-6.4,11.2c-2.5,3.5-6.3,6-8.7,9.4c-2.2,3.2-2.1,7.8-3,11.6
					c-1.2,5.2-2.8,10.3-4.4,15.3c-3,9.6-5.6,19-6.8,29c-1.2,9.5-1.5,19.1-4.1,28.4c-2.9,10.5-9.2,17.9-18.3,23.7
					c-3,1.9-5.8,3.4-7,6.9c-1.4,4.3-0.4,9.5,1.1,13.6c3.6,9.9,12.2,16.8,14.5,27.3c0.4,1.9,3.3,1.1,2.9-0.8
					c-1.9-8.5-7.6-14.6-11.9-21.9c-2.6-4.4-4.5-9.5-4.1-14.7c0.5-5.9,6.9-8.1,11.1-11.3c13.9-10.6,16.3-26.6,18-43
					c1-9.8,2.4-19.3,5.2-28.8c2.7-9.4,6-18.6,7.8-28.2c1-5.3,4.1-7.5,7.4-11.3c2.5-2.9,4.6-6.1,6.5-9.4c4.1-7.3,6.9-15.3,9.5-23.2
					c3.2-10,5.8-20.3,9.7-30.1c1.9-4.8,4.1-9.5,7-13.9c3.4-5.2,7.9-9.2,12.2-13.7c0.6-0.6,0.5-1.5,0-2.1c-1-1.3-2-1.8-3.6-1.7
					C355.9,175.3,355.9,178.3,357.8,178.2L357.8,178.2z"/>
			</g>
		</g>
		<g>
			<g>
				<path class="st3" d="M404.6,260.8c-12,10.3-25.1,19.1-39.5,25.8c-6.8,3.2-14,5.1-20.9,8c-5.7,2.3-8.6,7.5-11.9,12.4
					c-17,25.2-31.9,52.5-34.6,83.3c-0.8,9,0.5,17.8,0.3,26.8c-0.2,7.8-4.7,20.9-15.1,17.6c-1.8-0.6-2.6,2.3-0.8,2.9
					c11.4,3.7,18.3-9.3,18.8-18.7c0.5-8.3-1-16.6-0.5-24.9c0.5-8.7,2-17.2,4.4-25.6c4.6-16.6,12.5-32,21.5-46.6
					c4.3-6.9,8.6-15.2,14.3-21.1c3-3.2,7.1-4,11.1-5.4c3.5-1.2,7-2.5,10.4-4c16.3-6.9,31.2-16.7,44.6-28.3
					C408.2,261.6,406,259.5,404.6,260.8L404.6,260.8z"/>
			</g>
		</g>
		<g>
			<g>
				<path class="st3" d="M376.6,272.3c-7.7,3.4-15.9-0.1-23.8,2c-2.9,0.8-5.1,2.2-7.3,4c-2.8,2.3-4.8,4.3-8.8,3.4
					c-2.8-0.6-5.2-2.6-7.2-4.5c-1.4-1.3-3.5,0.8-2.1,2.1c2.9,2.7,6.3,5.2,10.4,5.6c4.2,0.4,6.9-2,9.9-4.5c8.7-7.3,20.7-1.1,30.6-5.5
					C379.9,274.1,378.4,271.5,376.6,272.3L376.6,272.3z"/>
			</g>
		</g>
		<path class="st4" d="M295.5,295.6c-3.4,27.4,8.9,51.2,27.4,53.4c18.5,2.1,36.3-18.3,39.7-45.7c3.4-27.4-8.9-51.2-27.4-53.4
			C316.6,247.8,298.9,268.3,295.5,295.6z"/>
	</g>
</g>
</svg>
